# File created by Blade
# Date/Time:  Wed Apr 08 17:20:14 2015
#---------------------------------------------------------
:version 1.10
:name HOM
:units
  mass 1.0
  length 1.000000
  angle deg
:documentation
     Acclaim Skeleton File
:root
   axis xyz
   order TX TY TZ RX RY RZ
   position 0.000000 0.000000 0.000000
   orientation 0 0 0
:bonedata
   begin
      id 1
      name Spine_dum
      direction 0.000000 1.000000 0.000000
      length 5.893853
      axis 0.0 0.0 0.0 xyz
   end
   begin
      id 2
      name LeftUpLeg_dum
      direction 1.000000 0.000000 0.000000
      length 3.697939
      axis 0.0 0.0 0.0 xyz
   end
   begin
      id 3
      name RightUpLeg_dum
      direction -1.000000 0.000000 0.000000
      length 3.697939
      axis 0.0 0.0 0.0 xyz
   end
   begin
      id 4
      name Spine
      direction 0.000000 1.000000 0.000000
      length 0.000000
      axis 0.0 0.0 0.0 xyz
      dof rx ry rz
   end
   begin
      id 5
      name Spine_dum1
      direction 0.000000 1.000000 0.000000
      length 16.447146
      axis 0.0 0.0 0.0 xyz
   end
   begin
      id 6
      name Spine_dum2
      direction 0.000000 1.000000 0.000000
      length 10.900383
      axis 0.0 0.0 0.0 xyz
   end
   begin
      id 7
      name Spine_dum3
      direction 0.000000 1.000000 0.000000
      length 10.900383
      axis 0.0 0.0 0.0 xyz
   end
   begin
      id 8
      name Head
      direction 0.000000 1.000000 0.000000
      length 4.527550
      axis 0.0 0.0 0.0 xyz
      dof rx ry rz
   end
   begin
      id 9
      name LeftShoulder
      direction 1.000000 0.000000 0.000000
      length 8.219464
      axis 0.0 0.0 -90.0 xyz
      dof rx ry rz
   end
   begin
      id 10
      name LeftArm
      direction 1.000000 0.000000 0.000000
      length 11.094937
      axis 0.0 0.0 -90.0 xyz
      dof rx ry rz
   end
   begin
      id 11
      name LeftForeArm
      direction 1.000000 0.000000 0.000000
      length 9.103875
      axis 0.0 0.0 -90.0 xyz
      dof ry rz rx
   end
   begin
      id 12
      name LeftHand
      direction 0.000000 0.000000 0.000000
      length 0.000000
      axis 0.0 0.0 -90.0 xyz
      dof rx ry rz
   end
   begin
      id 13
      name LeftHand_dum1
      direction 0.000000 0.000000 0.000000
      length 0.000000
      axis 0.0 0.0 -90.0 xyz
   end
   begin
      id 14
      name LeftHand_dum2
      direction 1.000000 0.000000 0.000000
      length 3.937000
      axis 0.0 0.0 -90.0 xyz
   end
   begin
      id 15
      name LeftHandThumb1
      direction 0.000000 0.000000 1.000000
      length 3.937000
      axis 0.0 0.0 -90.0 xyz
      dof rx rz ry
   end
   begin
      id 16
      name RightShoulder
      direction -1.000000 0.000000 0.000000
      length 8.219464
      axis 0.0 0.0 90.0 xyz
      dof rx ry rz
   end
   begin
      id 17
      name RightArm
      direction -1.000000 0.000000 0.000000
      length 11.094937
      axis 0.0 0.0 90.0 xyz
      dof rx ry rz
   end
   begin
      id 18
      name RightForeArm
      direction -1.000000 0.000000 0.000000
      length 9.103875
      axis 0.0 0.0 90.0 xyz
      dof ry rz rx
   end
   begin
      id 19
      name RightHand
      direction 0.000000 0.000000 0.000000
      length 0.000000
      axis 0.0 0.0 90.0 xyz
      dof rx ry rz
   end
   begin
      id 20
      name RightHand_dum1
      direction 0.000000 0.000000 0.000000
      length 0.000000
      axis 0.0 0.0 90.0 xyz
   end
   begin
      id 21
      name RightHand_dum2
      direction -1.000000 0.000000 0.000000
      length 3.937000
      axis 0.0 0.0 90.0 xyz
   end
   begin
      id 22
      name RightHandThumb1
      direction 0.000000 0.000000 1.000000
      length 3.937000
      axis 0.0 0.0 90.0 xyz
      dof rx rz ry
   end
   begin
      id 23
      name LeftUpLeg
      direction 0.000000 -1.000000 0.000000
      length 16.181467
      axis 0.0 0.0 0.0 xyz
      dof rx ry rz
   end
   begin
      id 24
      name LeftLeg
      direction 0.000000 -1.000000 0.000000
      length 16.501392
      axis 0.0 0.0 0.0 xyz
      dof rx ry rz
   end
   begin
      id 25
      name LeftFoot
      direction 0.000000 -0.258819 0.965926
      length 6.408245
      axis 15.0 0.0 0.0 xyz
      dof rx ry rz
   end
   begin
      id 26
      name LeftToeBase
      direction 0.000000 0.000000 1.000000
      length 2.952750
      axis 0.0 0.0 0.0 xyz
      dof rx ry rz
   end
   begin
      id 27
      name RightUpLeg
      direction 0.000000 -1.000000 0.000000
      length 16.181467
      axis 0.0 0.0 0.0 xyz
      dof rx ry rz
   end
   begin
      id 28
      name RightLeg
      direction 0.000000 -1.000000 0.000000
      length 16.501392
      axis 0.0 0.0 0.0 xyz
      dof rx ry rz
   end
   begin
      id 29
      name RightFoot
      direction 0.000000 -0.258819 0.965926
      length 6.408245
      axis 15.0 0.0 0.0 xyz
      dof rx ry rz
   end
   begin
      id 30
      name RightToeBase
      direction 0.000000 0.000000 1.000000
      length 2.952750
      axis 0.0 0.0 0.0 xyz
      dof rx ry rz
   end
:hierarchy
   begin
      root Spine_dum LeftUpLeg_dum RightUpLeg_dum
      Spine_dum Spine
      LeftUpLeg_dum LeftUpLeg
      RightUpLeg_dum RightUpLeg
      Spine Spine_dum1 Spine_dum2 Spine_dum3
      Spine_dum1 Head
      Spine_dum2 LeftShoulder
      Spine_dum3 RightShoulder
      LeftShoulder LeftArm
      LeftArm LeftForeArm
      LeftForeArm LeftHand
      LeftHand LeftHand_dum1 LeftHand_dum2
      LeftHand_dum1 LeftHandThumb1
      RightShoulder RightArm
      RightArm RightForeArm
      RightForeArm RightHand
      RightHand RightHand_dum1 RightHand_dum2
      RightHand_dum1 RightHandThumb1
      LeftUpLeg LeftLeg
      LeftLeg LeftFoot
      LeftFoot LeftToeBase
      RightUpLeg RightLeg
      RightLeg RightFoot
      RightFoot RightToeBase
   end

# File created by Blade
# Date/Time:  Wed Apr 08 17:19:54 2015
# Frame Rate: 120.000 fps
#------------------------------------------------------
:FULLY-SPECIFIED
:DEGREES
319
root 5.254962 36.942114 1.485781 6.229023 -52.352709 -13.893727
Spine 9.310452 1.011042 4.558480
Head 18.860305 13.367208 13.845640
LeftShoulder -6.814184 17.519646 14.791706
LeftArm 17.846361 17.075239 -76.392365
LeftForeArm 20.076198 -0.000000 29.405363
LeftHand -10.999379 -0.000000 -12.946293
LeftHandThumb1 -26.253704 0.000000 33.147579
RightShoulder -33.701428 -52.371476 26.893710
RightArm 51.986756 -16.729232 61.145962
RightForeArm 35.239423 0.000000 7.356875
RightHand -6.105468 -0.000000 19.655268
RightHandThumb1 -24.326973 -0.000000 -32.862282
LeftUpLeg 11.294484 14.966244 6.401148
LeftLeg 5.640417 -0.000000 -0.000000
LeftFoot -9.466185 -13.975926 -15.998896
LeftToeBase 19.831013 -0.000000 -0.000000
RightUpLeg -16.510028 -4.410136 -14.241324
RightLeg 152.780501 -0.000000 -0.000000
RightFoot -0.176220 13.227059 1.568961
RightToeBase -5.414401 -0.000000 0.000000
320
root 5.219993 36.969709 1.419052 6.719615 -52.375002 -14.456484
Spine 9.333594 1.128535 4.464646
Head 18.901370 13.607118 14.048398
LeftShoulder -6.872145 17.553432 14.730541
LeftArm 17.911396 16.754323 -76.179561
LeftForeArm 19.966025 -0.000000 29.369383
LeftHand -11.096819 -0.000000 -12.883227
LeftHandThumb1 -26.253704 0.000000 33.147579
RightShoulder -33.753095 -52.380428 26.991395
RightArm 52.057956 -16.728841 60.988305
RightForeArm 35.573687 -0.000000 7.274491
RightHand -6.099142 0.000000 19.876962
RightHandThumb1 -24.326973 -0.000000 -32.862282
LeftUpLeg 11.293451 15.066638 6.876387
LeftLeg 5.549765 -0.000000 -0.000000
LeftFoot -9.376373 -14.044933 -16.185879
LeftToeBase 19.859401 -0.000000 -0.000000
RightUpLeg -16.539031 -4.368636 -14.450546
RightLeg 152.747486 -0.000000 -0.000000
RightFoot -0.031761 13.560907 1.675360
RightToeBase -4.792802 -0.000000 0.000000
321
root 5.184856 36.997540 1.354755 7.193550 -52.419105 -15.027866
Spine 9.372430 1.244640 4.386108
Head 18.974265 13.866535 14.223298
LeftShoulder -6.884957 17.586361 14.677573
LeftArm 17.896157 16.409402 -76.008124
LeftForeArm 19.941380 0.000000 29.391362
LeftHand -11.100519 -0.000000 -12.801161
LeftHandThumb1 -26.253704 0.000000 33.147579
RightShoulder -33.684298 -52.316014 26.948790
RightArm 52.059761 -16.869258 60.807675
RightForeArm 35.556983 0.000000 7.191926
RightHand -6.030711 0.000000 19.719100
RightHandThumb1 -24.326973 -0.000000 -32.862282
LeftUpLeg 11.323255 15.185175 7.354456
LeftLeg 5.465284 -0.000000 -0.000000
LeftFoot -9.318052 -14.085421 -16.272940
LeftToeBase 19.817510 -0.000000 -0.000000
RightUpLeg -16.532342 -4.269562 -14.689973
RightLeg 152.703187 -0.000000 -0.000000
RightFoot 0.027031 13.860644 1.881746
RightToeBase -4.157513 -0.000000 0.000000
322
root 5.145885 37.025269 1.289453 7.656853 -52.474008 -15.625556
Spine 9.439605 1.346774 4.314756
Head 19.051157 14.176244 14.394045
LeftShoulder -6.936713 17.645209 14.605471
LeftArm 17.934387 16.100139 -75.795339
LeftForeArm 19.983928 0.000000 29.395263
LeftHand -11.221156 -0.000000 -12.527556
LeftHandThumb1 -26.253704 0.000000 33.147579
RightShoulder -33.623544 -52.317777 26.913514
RightArm 52.137878 -16.971664 60.637740
RightForeArm 35.802732 0.000000 7.048633
RightHand -5.985063 0.000000 19.733507
RightHandThumb1 -24.326973 -0.000000 -32.862282
LeftUpLeg 11.390730 15.258125 7.854609
LeftLeg 5.390580 -0.000000 -0.000000
LeftFoot -9.269319 -14.125221 -16.437855
LeftToeBase 19.858259 -0.000000 -0.000000
RightUpLeg -16.496002 -4.084979 -14.925429
RightLeg 152.649357 -0.000000 -0.000000
RightFoot -0.150343 14.241961 2.642911
RightToeBase -2.740962 -0.000000 0.000000
323
root 5.105758 37.050586 1.225873 8.096911 -52.523434 -16.213752
Spine 9.520693 1.438525 4.248881
Head 19.137946 14.517801 14.522618
LeftShoulder -6.984321 17.668181 14.555990
LeftArm 17.952527 15.886837 -75.583618
LeftForeArm 20.105252 -0.000000 29.384735
LeftHand -11.233138 -0.000000 -12.425080
LeftHandThumb1 -26.253704 0.000000 33.147579
RightShoulder -33.549709 -52.261438 26.819975
RightArm 52.130596 -17.016279 60.587873
RightForeArm 36.085255 0.000000 6.929939
RightHand -6.209206 0.000000 19.843039
RightHandThumb1 -24.326973 -0.000000 -32.862282
LeftUpLeg 11.470070 15.233138 8.333868
LeftLeg 5.328440 -0.000000 -0.000000
LeftFoot -9.256445 -14.108693 -16.619478
LeftToeBase 19.818580 -0.000000 -0.000000
RightUpLeg -16.435414 -3.965565 -15.159377
RightLeg 152.614083 -0.000000 -0.000000
RightFoot -0.400749 14.429635 2.750018
RightToeBase -2.506628 -0.000000 0.000000
324
root 5.067783 37.075588 1.164411 8.536277 -52.553355 -16.807656
Spine 9.602011 1.527390 4.212949
Head 19.212071 14.840941 14.627356
LeftShoulder -7.007329 17.673722 14.518034
LeftArm 17.972489 15.717568 -75.397872
LeftForeArm 20.318256 0.000000 29.340868
LeftHand -11.377498 -0.000000 -12.073504
LeftHandThumb1 -26.253704 0.000000 33.147579
RightShoulder -33.463767 -52.250416 26.711234
RightArm 52.079844 -17.082119 60.583450
RightForeArm 35.948220 -0.000000 6.921095
RightHand -5.980727 -0.000000 19.677478
RightHandThumb1 -24.326973 -0.000000 -32.862282
LeftUpLeg 11.534305 15.161965 8.808011
LeftLeg 5.297376 -0.000000 -0.000000
LeftFoot -9.293683 -14.072586 -16.744353
LeftToeBase 19.908657 -0.000000 -0.000000
RightUpLeg -16.357266 -3.874262 -15.386842
RightLeg 152.576809 -0.000000 -0.000000
RightFoot -0.690489 14.529672 2.656336
RightToeBase -3.090437 -0.000000 0.000000
325
root 5.028568 37.101654 1.098405 9.040679 -52.578355 -17.478793
Spine 9.675108 1.611501 4.229661
Head 19.320891 15.168348 14.750027
LeftShoulder -7.021145 17.669228 14.498198
LeftArm 17.995528 15.627420 -75.207219
LeftForeArm 20.532305 -0.000000 29.259432
LeftHand -11.361157 -0.000000 -11.902169
LeftHandThumb1 -26.253704 0.000000 33.147579
RightShoulder -33.444559 -52.284198 26.685481
RightArm 52.074217 -17.068024 60.546512
RightForeArm 35.961753 -0.000000 6.938953
RightHand -6.076544 -0.000000 19.526844
RightHandThumb1 -24.326973 -0.000000 -32.862282
LeftUpLeg 11.575610 15.074549 9.332482
LeftLeg 5.305888 -0.000000 -0.000000
LeftFoot -9.340584 -14.049913 -16.854620
LeftToeBase 19.965462 -0.000000 -0.000000
RightUpLeg -16.286898 -3.788220 -15.539779
RightLeg 152.524307 -0.000000 -0.000000
RightFoot -0.954994 14.576274 2.521450
RightToeBase -4.080160 -0.000000 0.000000
326
root 4.996398 37.124733 1.035002 9.512735 -52.665233 -18.166577
Spine 9.839002 1.755183 4.289592
Head 19.344130 15.484909 14.776147
LeftShoulder -7.064855 17.636366 14.465680
LeftArm 18.052488 15.596316 -75.024453
LeftForeArm 20.749766 -0.000000 29.185537
LeftHand -11.541790 0.000000 -11.576946
LeftHandThumb1 -26.253704 0.000000 33.147579
RightShoulder -33.335382 -52.283830 26.514199
RightArm 52.001404 -16.988684 60.705899
RightForeArm 35.836332 0.000000 6.923892
RightHand -6.086863 -0.000000 19.435986
RightHandThumb1 -24.326973 -0.000000 -32.862282
LeftUpLeg 11.689137 14.922256 9.833798
LeftLeg 5.277802 -0.000000 -0.000000
LeftFoot -9.418586 -13.924135 -16.950291
LeftToeBase 19.960832 -0.000000 -0.000000
RightUpLeg -16.236182 -3.598825 -15.696009
RightLeg 152.476582 -0.000000 -0.000000
RightFoot -1.149967 14.631669 2.404603
RightToeBase -5.462260 -0.000000 0.000000
327
root 4.961685 37.148677 0.968294 10.012025 -52.701313 -18.814633
Spine 9.916301 1.878439 4.310773
Head 19.392641 15.752071 14.858027
LeftShoulder -7.049592 17.566942 14.491419
LeftArm 18.032717 15.503138 -74.920978
LeftForeArm 21.000698 -0.000000 29.061181
LeftHand -11.506213 -0.000000 -11.425260
LeftHandThumb1 -26.253704 0.000000 33.147579
RightShoulder -33.321667 -52.286036 26.487454
RightArm 51.938788 -16.860678 60.834042
RightForeArm 35.647054 -0.000000 6.913022
RightHand -6.062918 0.000000 19.527748
RightHandThumb1 -24.326973 -0.000000 -32.862282
LeftUpLeg 11.734461 14.678801 10.293180
LeftLeg 5.229593 -0.000000 -0.000000
LeftFoot -9.498379 -13.748834 -16.982256
LeftToeBase 19.900225 -0.000000 -0.000000
RightUpLeg -16.220197 -3.490542 -15.813372
RightLeg 152.413656 -0.000000 -0.000000
RightFoot -1.303081 14.549472 2.202491
RightToeBase -6.705281 -0.000000 0.000000
328
root 4.925718 37.171533 0.901943 10.531553 -52.746218 -19.477424
Spine 9.986049 2.018795 4.337696
Head 19.390296 15.952193 14.944399
LeftShoulder -7.060662 17.543389 14.550527
LeftArm 18.088676 15.458738 -74.834740
LeftForeArm 21.116949 0.000000 28.934487
LeftHand -11.683552 0.000000 -11.365636
LeftHandThumb1 -26.253704 0.000000 33.147579
RightShoulder -33.497582 -52.302092 26.660379
RightArm 52.055225 -16.784664 60.653918
RightForeArm 36.008908 -0.000000 6.867445
RightHand -6.328379 -0.000000 19.817614
RightHandThumb1 -24.326973 -0.000000 -32.862282
LeftUpLeg 11.773722 14.510302 10.776972
LeftLeg 5.201528 -0.000000 -0.000000
LeftFoot -9.539343 -13.649748 -17.021916
LeftToeBase 19.705548 -0.000000 -0.000000
RightUpLeg -16.212856 -3.335264 -15.904625
RightLeg 152.357589 -0.000000 -0.000000
RightFoot -1.490435 14.534741 2.054405
RightToeBase -6.835097 -0.000000 0.000000
329
root 4.892376 37.194969 0.832796 11.101384 -52.810629 -20.142918
Spine 9.999694 2.164132 4.361184
Head 19.440424 16.174068 15.062799
LeftShoulder -7.053003 17.524133 14.612542
LeftArm 18.081685 15.343733 -74.813816
LeftForeArm 21.395854 -0.000000 28.752056
LeftHand -11.491861 -0.000000 -11.260827
LeftHandThumb1 -26.253704 0.000000 33.147579
RightShoulder -33.471623 -52.250679 26.687356
RightArm 51.997773 -16.723884 60.615423
RightForeArm 35.875452 0.000000 6.814568
RightHand -6.300845 -0.000000 19.730688
RightHandThumb1 -24.326973 -0.000000 -32.862282
LeftUpLeg 11.776804 14.325268 11.225168
LeftLeg 5.147467 -0.000000 -0.000000
LeftFoot -9.611617 -13.451638 -16.947044
LeftToeBase 19.570905 -0.000000 -0.000000
RightUpLeg -16.279516 -3.159722 -15.966156
RightLeg 152.305127 -0.000000 -0.000000
RightFoot -1.645609 14.567872 1.937334
RightToeBase -6.138183 -0.000000 0.000000
330
root 4.865183 37.215641 0.760862 11.621283 -52.880106 -20.757515
Spine 10.062546 2.304123 4.355339
Head 19.394107 16.420514 15.180470
LeftShoulder -7.037591 17.477351 14.704562
LeftArm 18.064523 15.224340 -74.824642
LeftForeArm 21.442210 0.000000 28.626345
LeftHand -11.608671 -0.000000 -11.225899
LeftHandThumb1 -26.253704 0.000000 33.147579
RightShoulder -33.520446 -52.183226 26.783968
RightArm 52.101650 -16.818606 60.306920
RightForeArm 36.038696 0.000000 6.738353
RightHand -6.301080 -0.000000 19.542723
RightHandThumb1 -24.326973 -0.000000 -32.862282
LeftUpLeg 11.755495 14.118667 11.621598
LeftLeg 5.139462 -0.000000 -0.000000
LeftFoot -9.711972 -13.211535 -16.861369
LeftToeBase 19.383857 -0.000000 -0.000000
RightUpLeg -16.379971 -2.985409 -16.021994
RightLeg 152.282559 -0.000000 -0.000000
RightFoot -1.736142 14.642356 1.737573
RightToeBase -5.659772 -0.000000 0.000000
331
root 4.844022 37.235854 0.687576 12.202097 -52.982786 -21.377073
Spine 10.061105 2.460673 4.373060
Head 19.389789 16.706272 15.283243
LeftShoulder -7.019707 17.461976 14.767714
LeftArm 18.067600 15.076214 -74.842603
LeftForeArm 21.344946 -0.000000 28.461153
LeftHand -11.590252 -0.000000 -11.267397
LeftHandThumb1 -26.253704 0.000000 33.147579
RightShoulder -33.408909 -52.090627 26.696146
RightArm 52.028848 -16.680919 60.465727
RightForeArm 35.847400 -0.000000 6.566947
RightHand -6.272125 -0.000000 19.578107
RightHandThumb1 -24.326973 -0.000000 -32.862282
LeftUpLeg 11.678579 13.977697 11.987887
LeftLeg 5.125992 -0.000000 -0.000000
LeftFoot -9.808767 -12.931464 -16.749487
LeftToeBase 19.227038 -0.000000 -0.000000
RightUpLeg -16.563580 -2.778374 -16.046644
RightLeg 152.271333 -0.000000 -0.000000
RightFoot -1.775175 14.704278 1.568996
RightToeBase -6.147182 -0.000000 0.000000
